<?xml version="1.0" encoding="UTF-8"?>
<svg xmlns="http://www.w3.org/2000/svg" xmlns:xlink="http://www.w3.org/1999/xlink" width="60px" height="60px" viewBox="0 0 60 60" version="1.1">
<g id="surface1">
<path style=" stroke:none;fill-rule:nonzero;fill:rgb(92.54902%,40.392157%,21.568627%);fill-opacity:1;" d="M 50.554688 0 C 54.070312 0 56.90625 2.84375 57.074219 6.1875 L 57.074219 60 L 50.378906 54.316406 L 46.703125 50.972656 L 42.695312 47.476562 L 44.371094 52.988281 L 9.273438 52.988281 C 5.769531 52.988281 2.925781 50.328125 2.925781 46.800781 L 2.925781 6.199219 C 2.925781 2.855469 5.773438 0.0078125 9.289062 0.0078125 L 50.539062 0.0078125 Z M 35.261719 14.207031 L 35.183594 14.207031 L 34.679688 14.707031 C 39.863281 16.207031 42.371094 18.550781 42.371094 18.550781 C 39.03125 16.878906 36.019531 16.046875 33.011719 15.707031 C 30.835938 15.371094 28.660156 15.546875 26.824219 15.707031 L 26.324219 15.707031 C 25.148438 15.707031 22.648438 16.207031 19.296875 17.546875 C 18.128906 18.050781 17.460938 18.386719 17.460938 18.386719 C 17.460938 18.386719 19.964844 15.878906 25.484375 14.542969 L 25.148438 14.203125 C 25.148438 14.203125 20.96875 14.046875 16.453125 17.378906 C 16.453125 17.378906 11.941406 25.238281 11.941406 34.929688 C 11.941406 34.929688 14.441406 39.28125 21.300781 39.445312 C 21.300781 39.445312 22.300781 38.113281 23.3125 36.941406 C 19.460938 35.769531 17.960938 33.429688 17.960938 33.429688 C 17.960938 33.429688 18.296875 33.59375 18.800781 33.929688 L 18.949219 33.929688 C 19.023438 33.929688 19.058594 33.96875 19.101562 34.003906 L 19.101562 34.019531 C 19.140625 34.058594 19.175781 34.09375 19.25 34.09375 C 20.074219 34.433594 20.898438 34.769531 21.574219 35.09375 C 22.738281 35.601562 24.238281 36.101562 26.074219 36.433594 C 28.398438 36.773438 31.066406 36.933594 34.101562 36.433594 C 35.601562 36.097656 37.101562 35.765625 38.601562 35.097656 C 39.574219 34.597656 40.773438 34.097656 42.09375 33.253906 C 42.09375 33.253906 40.59375 35.59375 36.578125 36.765625 C 37.40625 37.929688 38.566406 39.265625 38.566406 39.265625 C 45.425781 39.113281 48.09375 34.765625 48.242188 34.949219 C 48.242188 25.273438 43.703125 17.398438 43.703125 17.398438 C 39.617188 14.363281 35.792969 14.25 35.117188 14.25 L 35.257812 14.199219 Z M 35.679688 25.238281 C 37.4375 25.238281 38.855469 26.738281 38.855469 28.578125 C 38.855469 30.425781 37.429688 31.925781 35.679688 31.925781 C 33.929688 31.925781 32.503906 30.425781 32.503906 28.59375 C 32.511719 26.742188 33.9375 25.246094 35.679688 25.246094 Z M 24.324219 25.238281 C 26.074219 25.238281 27.488281 26.738281 27.488281 28.578125 C 27.488281 30.425781 26.0625 31.925781 24.3125 31.925781 C 22.5625 31.925781 21.136719 30.425781 21.136719 28.59375 C 21.136719 26.742188 22.5625 25.246094 24.3125 25.246094 Z M 24.324219 25.238281 "/>
</g>
</svg>