<?xml version="1.0" encoding="UTF-8"?>
<svg xmlns="http://www.w3.org/2000/svg" xmlns:xlink="http://www.w3.org/1999/xlink" width="65px" height="60px" viewBox="0 0 64 60" version="1.1">
<g id="surface1">
<path style=" stroke:none;fill-rule:evenodd;fill:rgb(92.54902%,40.392157%,21.568627%)" d="M 0 35.636719 C -0.03125 32.566406 1.125 29.84375 3.839844 28.953125 L 3.90625 28.835938 C 3.984375 28.679688 4.089844 28.535156 4.21875 28.414062 C 4.382812 28.292969 4.570312 28.203125 4.765625 28.152344 L 4.917969 28.09375 C 18.074219 23.203125 24.003906 15.863281 27.417969 10.882812 C 27.417969 15.777344 28.628906 22.15625 30.765625 28.328125 C 32.957031 34.652344 36.125 40.820312 39.988281 45.0625 C 35.964844 43.902344 30.910156 42.429688 22.691406 43.5625 C 22.347656 44.410156 22.152344 45.308594 22.109375 46.226562 C 22.054688 46.804688 22.242188 47.378906 22.628906 47.808594 L 22.753906 47.921875 C 23.277344 48.402344 23.53125 48.640625 23.644531 49.066406 C 23.722656 49.632812 23.699219 50.207031 23.578125 50.761719 L 23.53125 51.117188 C 23.339844 52.660156 24.078125 52.976562 24.8125 53.292969 C 25.546875 53.605469 26.121094 53.859375 26.417969 54.707031 C 26.4375 54.777344 26.4375 54.851562 26.417969 54.917969 C 26.113281 56.5 25.113281 57.363281 24.109375 58.234375 C 23.863281 58.449219 23.613281 58.664062 23.402344 58.871094 L 23.371094 58.871094 C 21.328125 60.523438 19.949219 60.082031 18.902344 58.753906 C 18.078125 57.699219 17.503906 56.121094 16.972656 54.640625 L 16.746094 53.996094 C 15.882812 51.394531 15.1875 48.738281 14.660156 46.046875 L 14.484375 45.257812 C 14.03125 45.382812 13.558594 45.527344 13.0625 45.671875 C 12.4375 45.859375 11.8125 46.058594 11.191406 46.257812 L 10.996094 46.332031 C 10.785156 46.472656 10.511719 46.472656 10.300781 46.332031 C 7.015625 47.4375 4.269531 45.859375 2.4375 43.222656 C 1.664062 42.113281 1.0625 40.886719 0.660156 39.589844 C 0.25 38.3125 0.0273438 36.980469 0 35.636719 Z M 45.734375 8.535156 C 45.402344 8.792969 44.980469 8.90625 44.566406 8.84375 C 44.152344 8.785156 43.78125 8.5625 43.53125 8.222656 L 43.496094 8.171875 C 43 7.46875 43.144531 6.492188 43.824219 5.964844 C 46.355469 4.074219 48.875 2.167969 51.40625 0.320312 C 51.738281 0.0742188 52.152344 -0.03125 52.5625 0.0234375 C 52.980469 0.0898438 53.355469 0.316406 53.605469 0.660156 L 53.605469 0.6875 C 53.84375 1.027344 53.941406 1.449219 53.875 1.863281 C 53.8125 2.285156 53.585938 2.664062 53.246094 2.914062 Z M 53.957031 38.933594 C 53.542969 38.925781 53.148438 38.75 52.859375 38.445312 C 52.570312 38.144531 52.410156 37.738281 52.417969 37.316406 L 52.417969 37.28125 C 52.417969 36.855469 52.585938 36.449219 52.886719 36.148438 C 53.1875 35.851562 53.59375 35.691406 54.015625 35.699219 C 56.8125 35.699219 59.65625 35.804688 62.453125 35.859375 C 63.328125 35.878906 64.023438 36.605469 64.015625 37.492188 C 64.007812 37.917969 63.832031 38.324219 63.53125 38.625 C 63.230469 38.921875 62.828125 39.085938 62.40625 39.078125 L 53.972656 38.914062 Z M 54.203125 30.660156 C 53.785156 30.695312 53.371094 30.558594 53.054688 30.285156 C 52.734375 30.007812 52.539062 29.617188 52.511719 29.195312 L 52.511719 29.15625 C 52.460938 28.289062 53.097656 27.539062 53.953125 27.457031 C 56.558594 27.246094 59.207031 27.019531 61.816406 26.847656 C 62.683594 26.796875 63.4375 27.453125 63.503906 28.328125 C 63.539062 28.753906 63.402344 29.171875 63.125 29.496094 C 62.851562 29.816406 62.460938 30.015625 62.042969 30.050781 C 59.515625 30.304688 56.738281 30.515625 54.203125 30.652344 Z M 53.078125 22.972656 C 52.230469 23.214844 51.347656 22.71875 51.109375 21.859375 C 50.992188 21.453125 51.042969 21.015625 51.25 20.648438 C 51.457031 20.277344 51.796875 20 52.203125 19.878906 C 54.917969 19.15625 57.621094 18.273438 60.332031 17.535156 C 60.734375 17.417969 61.167969 17.46875 61.53125 17.675781 C 61.894531 17.882812 62.164062 18.222656 62.285156 18.625 C 62.523438 19.480469 62.035156 20.371094 61.191406 20.617188 L 53.074219 22.960938 Z M 49.796875 15.429688 C 49.011719 15.824219 48.058594 15.5 47.667969 14.707031 C 47.472656 14.324219 47.441406 13.882812 47.578125 13.480469 C 47.710938 13.074219 48 12.738281 48.375 12.546875 L 56.1875 8.601562 C 56.5625 8.402344 57.003906 8.367188 57.402344 8.503906 C 57.804688 8.640625 58.136719 8.933594 58.316406 9.320312 C 58.507812 9.703125 58.539062 10.144531 58.402344 10.550781 C 58.265625 10.953125 57.980469 11.285156 57.605469 11.476562 L 49.792969 15.429688 Z M 30.597656 6.34375 C 30.667969 6.265625 30.738281 6.191406 30.808594 6.125 C 31.019531 5.875 31.285156 5.675781 31.578125 5.539062 C 31.914062 5.425781 32.277344 5.410156 32.621094 5.496094 C 33.792969 5.6875 35.046875 6.550781 36.324219 7.875 C 39.449219 11.132812 42.738281 17.355469 45.082031 23.894531 C 47.425781 30.433594 48.832031 37.253906 48.128906 41.683594 C 47.863281 43.335938 47.3125 44.667969 46.40625 45.546875 L 46.359375 45.582031 C 45.976562 45.859375 45.539062 46.042969 45.074219 46.109375 C 45.03125 46.074219 44.988281 46.039062 44.941406 46.003906 C 41.824219 43.75 39.0625 40.007812 36.738281 35.609375 C 37.332031 35.726562 38.09375 35.277344 38.824219 34.515625 C 42.46875 30.625 40.675781 23.832031 36.128906 22.253906 C 34.277344 21.625 32.433594 21.625 31.703125 21.988281 L 31.625 22.027344 C 29.957031 15.523438 29.484375 9.507812 30.597656 6.34375 Z M 30.597656 6.34375 "/>
</g>
</svg>