<?xml version="1.0" encoding="UTF-8"?>
<svg xmlns="http://www.w3.org/2000/svg" xmlns:xlink="http://www.w3.org/1999/xlink" width="40px" height="60px" viewBox="0 0 40 60" version="1.1">
<g id="surface1">
<path style=" stroke:none;fill-rule:evenodd;fill:rgb(92.54902%,40.392157%,21.568627%);fill-opacity:1;" d="M 20 35.714844 C 24.855469 35.714844 28.570312 32 28.570312 27.144531 L 28.570312 10 C 28.570312 5.144531 24.855469 1.429688 20 1.429688 C 15.144531 1.429688 11.429688 5.144531 11.429688 10 L 11.429688 27.144531 C 11.429688 32 15.144531 35.714844 20 35.714844 Z M 35.144531 27.144531 C 35.144531 35.714844 28 41.714844 20 41.714844 C 12 41.714844 4.855469 35.714844 4.855469 27.144531 L 0 27.144531 C 0 36.855469 7.714844 44.855469 17.144531 46.285156 L 17.144531 55.714844 L 22.855469 55.714844 L 22.855469 46.285156 C 32.285156 44.855469 40 36.855469 40 27.144531 Z M 35.144531 27.144531 "/>
</g>
</svg>